<?xml version="1.0" encoding="utf-8"?>
<svg version="1.1" xmlns:cc="http://creativecommons.org/ns#" xmlns:dc="http://purl.org/dc/elements/1.1/" xmlns:rdf="http://www.w3.org/1999/02/22-rdf-syntax-ns#" xmlns="http://www.w3.org/2000/svg" xmlns:xlink="http://www.w3.org/1999/xlink" x="0px" y="0px" viewBox="0 0 1024 768" xml:space="preserve">
<rect fill="#f4f6f6" width="1024" height="768" />

 
 <g id="logo-group" transform="translate(.15151 -.79914) scale(1)">
  <path id="path671701" style="font-variant-ligatures:none" d="m316.29 468.22q-6.864 0-10.8-3.312-3.888-3.312-4.128-9.696-0.048-1.296-0.048-4.224 0-2.976 0.048-4.32 0.24-6.24 4.176-9.6 3.984-3.408 10.752-3.408 4.272 0 7.632 1.392 3.408 1.392 5.376 4.032t2.064 6.24q0 0.432-0.336 0.72-0.288 0.288-0.72 0.288h-6.816q-0.672 0-1.008-0.24-0.288-0.288-0.528-1.008-0.672-2.352-2.064-3.264-1.344-0.96-3.6-0.96-5.424 0-5.616 6.048-0.048 1.296-0.048 3.984t0.048 4.08q0.192 6.048 5.616 6.048 2.208 0 3.6-0.96 1.44-0.96 2.064-3.264 0.192-0.72 0.528-0.96 0.336-0.288 1.008-0.288h6.816q0.432 0 0.72 0.288 0.336 0.288 0.336 0.72-0.096 3.6-2.064 6.24t-5.376 4.032q-3.36 1.392-7.632 1.392z" stroke-miterlimit="2" stroke-width="0" fill="#354bb5"/>
  <path id="path671703" style="font-variant-ligatures:none" d="m350.13 468.22q-6.816 0-10.752-3.312t-4.176-9.744q-0.048-1.344-0.048-4.128t0.048-4.176q0.192-6.336 4.176-9.744 4.032-3.456 10.752-3.456 6.672 0 10.656 3.456 4.032 3.408 4.224 9.744 0.096 2.784 0.096 4.176 0 1.44-0.096 4.128-0.24 6.432-4.176 9.744-3.888 3.312-10.704 3.312zm0-7.2q2.496 0 3.984-1.488 1.488-1.536 1.584-4.656 0.096-2.784 0.096-3.984t-0.096-3.888q-0.096-3.12-1.584-4.608-1.488-1.536-3.984-1.536-2.544 0-4.032 1.536-1.488 1.488-1.584 4.608-0.048 1.344-0.048 3.888 0 2.592 0.048 3.984 0.096 3.12 1.584 4.656 1.488 1.488 4.032 1.488z" stroke-miterlimit="2" stroke-width="0" fill="#354bb5"/>
  <path id="path671705" style="font-variant-ligatures:none" d="m398.89 467.35q-0.288 0.288-0.72 0.288h-6.72q-1.392 0-1.968-1.296l-4.848-9.6q-0.432-0.768-1.296-0.768h-6.336q1.248 0 1.92 0.864 0.72 0.864 0.72 1.68v7.92q0 0.576-0.336 0.912-0.336 0.288-0.912 0.288h-6.528q-0.528 0-0.864-0.336t-0.336-0.864v-28.08q0-1.776 1.248-2.976t2.928-1.2h10.176q2.688 0 5.088 0.624 2.448 0.576 4.272 1.872t2.928 3.408q1.104 2.064 1.104 5.04t-1.248 5.232q-1.2 2.256-3.84 3.696-0.384 0.288-0.384 0.624t0.096 0.528l6 10.896q0.144 0.288 0.144 0.528 0 0.336-0.288 0.72zm-9.744-22.272q0-1.968-1.152-2.976-1.104-1.056-3.024-1.056h-8.256q1.152 0 1.872 0.864 0.72 0.816 0.72 1.728v3.84q0 0.624 0.432 1.056t1.056 0.432h4.176q1.92 0 3.024-0.96 1.152-0.96 1.152-2.928z" stroke-miterlimit="2" stroke-width="0" fill="#354bb5"/>
  <path id="path671707" style="font-variant-ligatures:none" d="m432.22 445.22q0 3.024-1.056 5.136-1.056 2.064-2.88 3.36-1.776 1.248-4.176 1.824-2.4 0.528-5.136 0.528h-4.032q-0.576 0-1.008 0.384t-0.432 1.056v8.88q0 0.48-0.336 0.816-0.288 0.384-0.864 0.384h-6.864q-0.48 0-0.864-0.336-0.336-0.384-0.336-0.864v-28.08q0-1.008 0.384-1.776 0.384-0.816 1.008-1.344t1.344-0.768q0.72-0.288 1.44-0.288h10.56q2.736 0 5.136 0.624 2.448 0.576 4.224 1.92 1.824 1.296 2.832 3.408 1.056 2.112 1.056 5.136zm-9.312-0.048q0-4.176-4.176-4.176h-8.112q0.384 0 0.864 0.192 0.48 0.144 0.864 0.48 0.432 0.336 0.72 0.864 0.288 0.48 0.288 1.104v4.128q0 0.672 0.432 1.104 0.48 0.384 1.056 0.384h3.888q1.968 0 3.072-1.056t1.104-3.024z" stroke-miterlimit="2" stroke-width="0" fill="#354bb5"/>
  <path id="path671709" style="font-variant-ligatures:none" d="m450.54 468.22q-6.816 0-10.752-3.312t-4.176-9.744q-0.048-1.344-0.048-4.128t0.048-4.176q0.192-6.336 4.176-9.744 4.032-3.456 10.752-3.456 6.672 0 10.656 3.456 4.032 3.408 4.224 9.744 0.096 2.784 0.096 4.176 0 1.44-0.096 4.128-0.24 6.432-4.176 9.744-3.888 3.312-10.704 3.312zm0-7.2q2.496 0 3.984-1.488 1.488-1.536 1.584-4.656 0.096-2.784 0.096-3.984t-0.096-3.888q-0.096-3.12-1.584-4.608-1.488-1.536-3.984-1.536-2.544 0-4.032 1.536-1.488 1.488-1.584 4.608-0.048 1.344-0.048 3.888 0 2.592 0.048 3.984 0.096 3.12 1.584 4.656 1.488 1.488 4.032 1.488z" stroke-miterlimit="2" stroke-width="0" fill="#354bb5"/>
  <path id="path671711" style="font-variant-ligatures:none" d="m499.29 467.35q-0.288 0.288-0.72 0.288h-6.72q-1.392 0-1.968-1.296l-4.848-9.6q-0.432-0.768-1.296-0.768h-6.336q1.248 0 1.92 0.864 0.72 0.864 0.72 1.68v7.92q0 0.576-0.336 0.912-0.336 0.288-0.912 0.288h-6.528q-0.528 0-0.864-0.336t-0.336-0.864v-28.08q0-1.776 1.248-2.976t2.928-1.2h10.176q2.688 0 5.088 0.624 2.448 0.576 4.272 1.872t2.928 3.408q1.104 2.064 1.104 5.04t-1.248 5.232q-1.2 2.256-3.84 3.696-0.384 0.288-0.384 0.624t0.096 0.528l6 10.896q0.144 0.288 0.144 0.528 0 0.336-0.288 0.72zm-9.744-22.272q0-1.968-1.152-2.976-1.104-1.056-3.024-1.056h-8.256q1.152 0 1.872 0.864 0.72 0.816 0.72 1.728v3.84q0 0.624 0.432 1.056t1.056 0.432h4.176q1.92 0 3.024-0.96 1.152-0.96 1.152-2.928z" stroke-miterlimit="2" stroke-width="0" fill="#354bb5"/>
  <path id="path671713" style="font-variant-ligatures:none" d="m501.34 467.45q-0.288-0.384-0.288-0.72t0.048-0.432l11.136-30.624q0.528-1.392 1.92-1.392h7.44q1.392 0 1.92 1.392l11.136 30.624q0.048 0.096 0.048 0.432 0 0.384-0.336 0.72-0.288 0.288-0.672 0.288h-6.192q-1.2 0-1.632-1.056l-2.496-6.768q-1.728 0.672-3.504 1.104t-3.456 0.672q-1.632 0.192-3.072 0.288-1.44 0.048-2.496 0.048-0.672 0-1.152 0t-0.72-0.048q0.912 0.096 1.44 0.96 0.576 0.816 0.144 1.92l-0.672 1.824q-0.432 1.056-1.632 1.056h-6.192q-0.336 0-0.72-0.288zm12.192-12.288q1.344-0.096 2.784-0.336 1.248-0.192 2.592-0.528 1.392-0.384 2.64-1.056l-3.696-10.56z" stroke-miterlimit="2" stroke-width="0" fill="#354bb5"/>
  <path id="path671715" style="font-variant-ligatures:none" d="m563.53 434.14q1.248 0 1.248 1.248v5.328q0 0.576-0.336 0.864-0.336 0.336-0.912 0.336h-11.088q1.056 0 1.872 0.768t0.816 1.728v21.984q0 0.576-0.336 0.912-0.336 0.288-0.912 0.288h-6.624q-0.48 0-0.864-0.336t-0.384-0.864v-23q0-0.672-0.48-1.056-0.432-0.432-0.96-0.432h-6.96q-0.576 0-0.912-0.336-0.336-0.288-0.336-0.864v-2.448q0-1.872 1.296-2.976 1.296-1.152 2.88-1.152z" stroke-miterlimit="2" stroke-width="0" fill="#354bb5"/>
  <path id="path671717" style="font-variant-ligatures:none" d="m569.04 466.44v-28.08q0-1.824 1.248-2.976 1.248-1.2 2.928-1.2h19.584q0.48 0 0.864 0.384t0.384 0.864v4.752q0 0.528-0.384 0.816-0.336 0.336-0.864 0.336h-17.76q1.152 0 1.872 0.816 0.768 0.816 0.768 1.776v2.016q0 0.528 0.384 1.008t1.104 0.48h10.416q1.248 0 1.248 1.248v4.32q0 1.248-1.248 1.248h-14.544q1.104 0 1.872 0.768t0.768 1.728v2.25q0 0.528 0.384 1.008 0.432 0.48 1.104 0.48h14.016q0.528 0 0.864 0.384 0.384 0.336 0.384 0.864v4.704q0 0.528-0.384 0.864t-0.864 0.336h-22.944q-0.528 0-0.864-0.336t-0.336-0.864z" stroke-miterlimit="2" stroke-width="0" fill="#354bb5"/>
  <path id="path671719" style="font-variant-ligatures:none" d="m610.06 466.49v-28.08q0-1.776 1.248-2.976t2.928-1.2h3.552q1.248 0 1.248 1.248v11.136q0 0.816 0.576 1.152 0.576 0.288 0.912 0.288 2.976-0.048 4.944-0.432 2.016-0.432 3.888-1.248 0.384-0.192 0.672-0.528t0.288-0.864v-6.576q0-0.96 0.336-1.728 0.384-0.768 0.96-1.296 0.624-0.576 1.344-0.864 0.768-0.288 1.536-0.288h3.552q1.248 0 1.248 1.248v31.008q0 0.576-0.336 0.912-0.336 0.288-0.912 0.288h-6.48q-0.48 0-0.864-0.336t-0.384-0.864v-11.376q0-0.72-0.48-1.056-0.432-0.336-0.96-0.336-0.192 0-0.48 0.096-2.352 0.672-4.752 0.864-2.352 0.192-4.176 0.192-0.96 0-1.632 0-0.672-0.048-1.056-0.048 0.96 0.144 1.584 0.864 0.672 0.672 0.672 1.632v9.168q0 0.576-0.336 0.912-0.336 0.288-0.912 0.288h-6.528q-0.528 0-0.864-0.336t-0.336-0.864z" stroke-miterlimit="2" stroke-width="0" fill="#354bb5"/>
  <path id="path671721" style="font-variant-ligatures:none" d="m659.79 468.22q-6.816 0-10.752-3.312t-4.176-9.744q-0.048-1.344-0.048-4.128t0.048-4.176q0.192-6.336 4.176-9.744 4.032-3.456 10.752-3.456 6.672 0 10.656 3.456 4.032 3.408 4.224 9.744 0.096 2.784 0.096 4.176 0 1.44-0.096 4.128-0.24 6.432-4.176 9.744-3.888 3.312-10.704 3.312zm0-7.2q2.496 0 3.984-1.488 1.488-1.536 1.584-4.656 0.096-2.784 0.096-3.984t-0.096-3.888q-0.096-3.12-1.584-4.608-1.488-1.536-3.984-1.536-2.544 0-4.032 1.536-1.488 1.488-1.584 4.608-0.048 1.344-0.048 3.888 0 2.592 0.048 3.984 0.096 3.12 1.584 4.656 1.488 1.488 4.032 1.488z" stroke-miterlimit="2" stroke-width="0" fill="#354bb5"/>
  <path id="path671723" style="font-variant-ligatures:none" d="m680.13 454.97v-16.61q0-0.96 0.384-1.728t0.96-1.296q0.624-0.528 1.344-0.816 0.768-0.288 1.488-0.288h3.552q0.528 0 0.864 0.384 0.384 0.336 0.384 0.864v19.392q0 2.736 1.296 4.368 1.344 1.584 4.176 1.584t4.128-1.632 1.296-4.32v-16.51q0-1.008 0.384-1.776 0.432-0.768 1.008-1.296 0.624-0.528 1.344-0.768 0.768-0.288 1.44-0.288h3.552q0.528 0 0.864 0.384 0.384 0.336 0.384 0.864v19.488q0 3.408-1.008 5.904t-2.928 4.128q-1.872 1.584-4.512 2.4-2.64 0.768-5.904 0.768t-5.952-0.768q-2.64-0.768-4.56-2.4t-2.976-4.128q-1.008-2.496-1.008-5.904z" stroke-miterlimit="2" stroke-width="0" fill="#354bb5"/>
  <path id="path671725" style="font-variant-ligatures:none" d="m742.46 457.56q0 2.928-1.344 4.992-1.344 2.016-3.456 3.264-2.112 1.2-4.704 1.776-2.592 0.528-5.04 0.528-1.68 0-3.504-0.24-1.824-0.192-3.552-0.768-1.68-0.576-3.216-1.488-1.488-0.96-2.544-2.4-1.728-2.208-1.776-4.752 0-0.432 0.288-0.72 0.384-0.288 0.768-0.288h6.336q0.624 0 0.96 0.192 0.384 0.192 0.768 0.672 0.864 1.536 2.304 2.112 1.488 0.528 3.168 0.528 0.72 0 1.632-0.096 0.912-0.144 1.728-0.432 0.816-0.336 1.392-0.912t0.576-1.536q0-1.248-1.008-1.824-1.008-0.624-2.016-0.96-0.768-0.24-1.92-0.528-1.104-0.288-2.592-0.624-2.208-0.432-4.272-1.104t-3.696-1.824q-1.584-1.152-2.592-2.88-0.96-1.776-0.96-4.368 0-2.736 1.2-4.656 1.248-1.968 3.168-3.168 1.92-1.248 4.272-1.776 2.4-0.576 4.752-0.576 1.632 0 3.312 0.288 1.728 0.288 3.312 0.912t2.928 1.584q1.392 0.96 2.448 2.304 1.632 2.16 1.728 4.272 0 0.384-0.288 0.768-0.288 0.288-0.72 0.288h-6.672q-1.056 0-1.632-0.864-0.192-0.672-0.672-1.104-0.48-0.48-1.152-0.72-0.624-0.288-1.296-0.384-0.672-0.144-1.296-0.144-0.72 0-1.488 0.096-0.72 0.096-1.344 0.432-0.576 0.288-1.008 0.864-0.384 0.528-0.384 1.392 0 1.392 1.44 2.208 1.44 0.768 5.328 1.584 2.304 0.384 4.512 1.008 2.256 0.624 3.984 1.728t2.784 2.88q1.056 1.728 1.056 4.464z" stroke-miterlimit="2" stroke-width="0" fill="#354bb5"/>
  <path id="path671727" style="font-variant-ligatures:none" d="m747.21 466.54v-28.08q0-1.824 1.248-2.976 1.248-1.2 2.928-1.2h3.84q0.576 0 0.864 0.336 0.336 0.336 0.336 0.864v31.056q0 0.528-0.336 0.864-0.288 0.336-0.864 0.336h-6.816q-0.528 0-0.864-0.336t-0.336-0.864z" stroke-miterlimit="2" stroke-width="0" fill="#354bb5"/>
  <path id="path671729" style="font-variant-ligatures:none" d="m763.01 466.39v-28.08q0-1.68 1.2-2.928t2.976-1.248h1.536q0.576 0 1.296 0.24 0.72 0.192 1.488 1.248 2.832 4.416 5.088 7.968 1.392 2.16 2.16 3.456 0.816 1.248 1.488 2.352 0.72 1.056 1.2 1.824t0.576 0.912q0.096 0.096 0.24 0.096 0.24 0 0.24-0.24v-13.68q0-0.96 0.336-1.728 0.384-0.768 0.96-1.296t1.344-0.816q0.768-0.336 1.536-0.336h3.12q0.528 0 0.816 0.336 0.336 0.336 0.336 0.912v30.96q0 0.528-0.336 0.864-0.288 0.384-0.816 0.384h-5.424q-1.152 0-1.632-0.912-2.88-4.416-5.184-7.92-1.44-2.112-2.256-3.36-0.816-1.296-1.536-2.352-0.672-1.104-1.152-1.824-0.48-0.768-0.576-0.912-0.144-0.144-0.24-0.144-0.288 0-0.288 0.24v15.984q0 0.576-0.336 0.912-0.336 0.288-0.912 0.288h-6.048q-0.48 0-0.864-0.336-0.336-0.384-0.336-0.864z" stroke-miterlimit="2" stroke-width="0" fill="#354bb5"/>
  <path id="path671731" style="font-variant-ligatures:none" d="m796.59 454.82q-0.048-0.672-0.048-1.728 0-1.104 0-2.64 0-1.488 0-2.592t0.048-1.776q0.096-3.312 1.296-5.712 1.248-2.4 3.264-3.936t4.704-2.256q2.688-0.768 5.76-0.768 1.776 0 3.6 0.288 1.872 0.288 3.6 0.912 1.776 0.624 3.312 1.632t2.688 2.448q1.824 2.304 1.872 4.752 0 0.432-0.336 0.768-0.288 0.288-0.72 0.288h-7.392q-0.528 0-0.72-0.192-0.336-0.192-0.528-0.48-0.288-0.672-0.768-1.2-0.432-0.576-1.056-1.104-1.344-0.96-3.552-0.96-5.52 0-5.76 5.76-0.048 0.672-0.048 1.68t0 2.4 0 2.448 0.048 1.728q0.096 3.024 1.536 4.56 1.44 1.488 5.04 1.488 1.152 0 1.872-0.048 0.72-0.096 1.2-0.24 0.528-0.192 0.864-0.432 0.384-0.288 0.816-0.624 1.056-0.96 1.392-2.352 0.192-0.768 0.576-1.296 0.432-0.528 0.912-0.816 0.528-0.336 1.008-0.48 0.528-0.144 0.864-0.144h-8.496q-0.576 0-0.912-0.336-0.288-0.384-0.288-0.912v-0.816q0-0.72 0.24-1.44 0.288-0.768 0.816-1.344t1.296-0.96 1.776-0.384h7.104q1.776 0 2.544 0.96 0.816 0.912 0.816 2.496v3.312q0 3.408-1.248 5.904-1.248 2.448-3.36 4.032-2.064 1.584-4.848 2.352-2.736 0.768-5.76 0.768-3.168 0-5.904-0.768-2.688-0.768-4.704-2.352-1.968-1.584-3.168-4.032-1.152-2.496-1.248-5.856z" stroke-miterlimit="2" stroke-width="0" fill="#354bb5"/>
  <path id="path671736" style="font-variant-ligatures:none" d="m457.52 373.66q0 6.588-3.132 11.124-3.024 4.536-7.776 7.344t-10.584 4.104q-5.832 1.188-11.34 1.188-5.292 0-11.016-1.08-5.616-1.08-10.368-3.564-4.752-2.592-7.992-6.696-3.132-4.212-3.456-10.368 0-0.972 0.648-1.62 0.75601-0.648 1.728-0.648h14.364q0.64799 0 1.08 0.108 0.54 0.108 0.972 0.324 0.756 0.432 1.836 1.512 1.728 3.456 5.076 4.752 3.456 1.188 7.128 1.188 1.62 0 3.672-0.216 2.16-0.216 3.888-0.864 1.836-0.756 3.132-2.052 1.296-1.404 1.296-3.564 0-2.916-2.16-4.212t-4.536-2.052q-1.836-0.648-4.428-1.188-2.484-0.648-5.832-1.296-4.968-0.972-9.612-2.484-4.644-1.62-8.316-4.212-3.564-2.592-5.832-6.48-2.16-3.996-2.16-9.72 0-7.128 3.888-12.204 3.996-5.184 10.368-7.884 6.912-2.808 15.876-2.808 3.564 0 7.344 0.648 3.888 0.54 7.452 1.944 3.672 1.296 6.804 3.564 3.132 2.16 5.4 5.292 3.672 4.752 3.996 9.612 0 0.864-0.756 1.62-0.648 0.756-1.512 0.756h-15.12q-2.268 0-3.564-1.944-0.648-2.268-3.348-3.888-2.916-1.512-6.696-1.512-1.62 0-3.348 0.216-1.62 0.216-3.024 0.972t-2.268 2.052q-0.864 1.188-0.864 3.132 0 3.024 3.24 4.86 3.24 1.728 12.096 3.564 5.076 0.972 10.044 2.376 5.076 1.296 8.964 3.78t6.264 6.48q2.484 3.888 2.484 10.044z" stroke-miterlimit="2" stroke-width="0" fill="#465ac1"/>
  <path id="path671738" style="font-variant-ligatures:none" d="m468.21 393.53v-63.18q0-3.78 2.7-6.588t6.696-2.808h3.456q1.296 0 2.916 0.54 1.62 0.432 3.348 2.808 6.372 9.936 11.448 17.928 3.132 4.86 4.86 7.776 1.836 2.808 3.348 5.292 1.62 2.376 2.7 4.104t1.296 2.052q0.216 0.216 0.54 0.216 0.53998 0 0.53998-0.54v-30.78q0-2.16 0.756-3.888 0.864-1.728 2.16-2.916t3.024-1.836q1.728-0.756 3.456-0.756h7.02q1.188 0 1.836 0.756 0.75602 0.756 0.75602 2.052v69.66q0 1.188-0.75602 1.944-0.648 0.864-1.836 0.864h-12.204q-2.592 0-3.672-2.052-6.48-9.936-11.664-17.82-3.24-4.752-5.076-7.56-1.836-2.916-3.456-5.292-1.512-2.484-2.592-4.104-1.08-1.728-1.296-2.052-0.32402-0.324-0.54001-0.324-0.64801 0-0.64801 0.54v35.964q0 1.296-0.75598 2.052-0.75602 0.648-2.052 0.648h-13.608q-1.08 0-1.944-0.756-0.75599-0.864-0.75599-1.944z" stroke-miterlimit="2" stroke-width="0" fill="#5768ce"/>
  <path id="path671740" style="font-variant-ligatures:none" d="m563.27 393.74v-19.22q0-1.728-0.432-3.456-0.432-1.836-1.08-3.024l-23.328-43.416q-0.324-0.54-0.324-1.188 0-0.864 0.648-1.512 0.756-0.756 1.62-0.756h14.148q1.188 0 2.268 0.648 1.188 0.54 1.62 1.728 3.888 7.02 7.02 12.636 1.836 3.456 2.916 5.508 1.188 1.944 2.052 3.672 0.972 1.728 1.62 2.916 0.756 1.188 0.864 1.404 0.216 0.324 0.54 0.324t0.432-0.324q0.108-0.216 0.756-1.404 0.756-1.296 1.728-3.132 1.08-1.836 2.376-4.212t2.592-4.752q3.132-5.616 7.02-12.636 1.404-2.376 3.888-2.376h14.148q0.864 0 1.512 0.756 0.756 0.648 0.756 1.512 0 0.648-0.324 1.188-6.264 11.664-11.34 20.952-3.024 5.724-4.86 9.072-1.728 3.24-3.24 6.156-1.512 2.808-2.592 4.86-1.08 1.944-1.296 2.268-0.75601 1.404-1.188 3.132-0.32401 1.62-0.32401 3.132v19.548q0 1.296-0.75599 2.052-0.756 0.648-2.052 0.648h-14.688q-1.188 0-1.944-0.756t-0.75601-1.944z" stroke-miterlimit="2" stroke-width="0" fill="#6877da"/>
  <path id="path671742" style="font-variant-ligatures:none" d="m615.55 393.85v-63.18q0-4.104 2.808-6.696 2.916-2.7 6.588-2.7h21.6q7.236 0 13.284 1.728 6.156 1.62 10.692 5.292 4.536 3.564 7.128 9.18 2.592 5.508 2.808 13.176 0.108 1.512 0.108 3.672 0 2.052 0 4.644 0 2.484 0 4.536t-0.108 3.564q-0.972 29.484-33.372 29.484h-28.836q-1.188 0-1.944-0.756t-0.756-1.944zm30.996-13.392q7.02 0 10.152-3.348 3.132-3.456 3.24-10.26 0.108-1.512 0.108-3.456 0.108-2.052 0.108-4.536t-0.108-4.428q0-2.052-0.108-3.564-0.324-13.5-13.932-13.5h-16.2q2.484 0 4.212 1.836 1.728 1.728 1.728 3.78v34.128q0 1.404 0.864 2.376 0.97201 0.972 2.484 0.972z" stroke-miterlimit="2" stroke-width="0" fill="#7985e6"/>
  <path id="path671744" style="font-variant-ligatures:none" d="m693.28 393.64v-63.18q0-4.104 2.808-6.696 2.808-2.7 6.588-2.7h44.064q1.08 0 1.944 0.864t0.864 1.944v10.692q0 1.188-0.864 1.836-0.756 0.756-1.944 0.756h-39.96q2.592 0 4.212 1.836 1.728 1.836 1.728 3.996v4.536q0 1.188 0.864 2.268t2.484 1.08h23.436q2.808 0 2.808 2.808v9.72q0 2.808-2.808 2.808h-32.724q2.484 0 4.212 1.728t1.728 3.888v5.076q0 1.188 0.864 2.268 0.972 1.08 2.484 1.08h31.536q1.188 0 1.944 0.864 0.86401 0.756 0.86401 1.944v10.584q0 1.188-0.86401 1.944-0.864 0.756-1.944 0.756h-51.624q-1.188 0-1.944-0.756t-0.756-1.944z" stroke-miterlimit="2" stroke-width="0" fill="#8a94f3"/>
  <path id="path671746" style="font-variant-ligatures:none" d="m826.19 395.69q-0.648 0.648-1.62 0.648h-15.12q-3.132 0-4.428-2.916l-10.908-21.6q-0.97198-1.728-2.916-1.728h-14.256q2.808 0 4.32 1.944 1.62 1.944 1.62 3.78v17.82q0 1.296-0.75602 2.052-0.756 0.648-2.052 0.648h-14.688q-1.188 0-1.944-0.756t-0.756-1.944v-63.18q0-3.996 2.808-6.696t6.588-2.7h22.896q6.048 0 11.448 1.404 5.508 1.296 9.612 4.212t6.588 7.668q2.484 4.644 2.484 11.34t-2.808 11.772q-2.7 5.076-8.64 8.316-0.864 0.648-0.864 1.404t0.216 1.188l13.5 24.516q0.324 0.648 0.324 1.188 0 0.756-0.648 1.62zm-21.924-50.112q0-4.428-2.592-6.696-2.484-2.376-6.804-2.376h-18.576q2.592 0 4.212 1.944 1.62 1.836 1.62 3.888v8.64q0 1.404 0.97202 2.376 0.972 0.972 2.376 0.972h9.396q4.32 0 6.804-2.16 2.592-2.16 2.592-6.588z" stroke-miterlimit="2" stroke-width="0" fill="#9ba2ff"/>
  <path id="icon" stroke-width="1.0459" fill="#354bb5" d="m200.92 301.39c-0.36461 0.002-0.72283 0.043-0.99323 0.11399-0.23319 0.0611-0.60303 0.20527-0.82169 0.31983-0.21923 0.11514-0.56466 0.34716-0.76876 0.51523-0.20353 0.16864-0.47917 0.44835-0.61234 0.62164-0.13283 0.17361-0.33364 0.49889-0.44555 0.72271s-0.25102 0.57629-0.30959 0.78442l-0.10773 0.37861v110.49l0.15236 0.44602c0.0837 0.24483 0.25121 0.62456 0.37276 0.8432 0.13375 0.24076 0.4059 0.58211 0.69084 0.86762 0.28553 0.28495 0.62688 0.5571 0.86762 0.69085 0.21866 0.12154 0.59838 0.28728 0.8432 0.36869 0.38962 0.12909 0.54604 0.1477 1.2311 0.1477 0.68503 0 0.84145-0.0186 1.2311-0.1477 0.24482-0.0814 0.62454-0.24715 0.8432-0.36869 0.24074-0.13375 0.5821-0.4059 0.86762-0.69085 0.28495-0.28551 0.5571-0.62686 0.69085-0.86762 0.12153-0.21864 0.28901-0.59837 0.37275-0.8432l0.15236-0.44602 0.0151-21.356 0.0151-21.356h167.47l0.0152 21.356 0.0152 21.356 0.15235 0.44602c0.0838 0.24483 0.25122 0.62456 0.37276 0.8432 0.13375 0.24076 0.4059 0.58211 0.69084 0.86762 0.28552 0.28495 0.62687 0.5571 0.86763 0.69085 0.21864 0.12154 0.59837 0.28728 0.8432 0.36869 0.38961 0.12909 0.54604 0.1477 1.231 0.1477 0.68503 0 0.84146-0.0186 1.231-0.1477 0.24482-0.0814 0.62456-0.24715 0.8432-0.36869 0.24076-0.13375 0.58211-0.4059 0.86762-0.69085 0.28495-0.28551 0.5571-0.62686 0.69085-0.86762 0.12154-0.21864 0.28901-0.59837 0.37276-0.8432l0.15235-0.44602v-47.684l-0.15235-0.44602c-0.0838-0.24483-0.25122-0.62456-0.37276-0.8432-0.13375-0.24076-0.4059-0.58211-0.69085-0.86762-0.28551-0.28495-0.62686-0.5571-0.86762-0.69085-0.21864-0.12154-0.59838-0.28901-0.8432-0.37276l-0.43927-0.15688-86.224-0.0105-86.227-0.0209-0.0146-29.726-0.0157-29.731-0.13597-0.40685c-0.0753-0.22382-0.23219-0.58989-0.34723-0.81371-0.14852-0.28657-0.36816-0.56583-0.73736-0.93817-0.45287-0.45496-0.60557-0.56792-1.0783-0.79488-0.30297-0.14538-0.73911-0.30529-0.96938-0.35647-0.2332-0.0512-0.6705-0.0907-0.98858-0.0884zm48.568 16.835c-0.73562-0.011-1.4556-0.01-1.5992 0.003-0.14363 0.0128-0.60187 0.0646-1.0176 0.11515-0.41579 0.0506-1.07 0.15526-1.4538 0.23319-0.3838 0.0779-0.98567 0.22214-1.3375 0.32099-0.35182 0.0983-0.99265 0.30937-1.4247 0.46929-0.43148 0.15991-1.1776 0.48149-1.6573 0.71526-0.47975 0.2332-1.1601 0.59955-1.512 0.81354-0.35181 0.21458-0.89785 0.57396-1.2136 0.799-0.31518 0.22505-0.81238 0.60769-1.1049 0.85018-0.29192 0.24249-0.78911 0.69084-1.1049 0.99555-0.31576 0.3053-0.80889 0.82634-1.0962 1.1584-0.28727 0.33205-0.7048 0.85017-0.92811 1.1508-0.2233 0.30064-0.59198 0.84029-0.82052 1.1991-0.22796 0.35822-0.61409 1.0444-0.85774 1.5242-0.24424 0.47975-0.58036 1.2223-0.74666 1.6503-0.1669 0.428-0.40532 1.1281-0.53035 1.5549-0.12502 0.42742-0.29192 1.0979-0.37042 1.4899-0.0791 0.39194-0.19016 1.0531-0.24715 1.469-0.0779 0.56757-0.10351 1.1398-0.10351 2.297 0 1.1607 0.0256 1.7277 0.10409 2.297 0.057 0.41578 0.16748 1.07 0.2454 1.4538 0.0773 0.3838 0.22156 0.98567 0.32042 1.3375 0.0983 0.35182 0.30936 0.99265 0.46928 1.4247 0.15992 0.43207 0.4815 1.1776 0.71527 1.6573 0.23319 0.47975 0.59955 1.1601 0.81354 1.5119 0.21457 0.35182 0.57395 0.89786 0.799 1.2137 0.22504 0.31518 0.60768 0.81237 0.85017 1.1049 0.24249 0.29192 0.69085 0.78912 0.99556 1.1049 0.3053 0.31577 0.82634 0.8089 1.1584 1.0962 0.33205 0.28726 0.85018 0.70479 1.1508 0.9281 0.30064 0.2233 0.8275 0.58327 1.17 0.80075 0.34251 0.21691 0.92403 0.55419 1.2916 0.74841 0.3681 0.19481 0.96997 0.48207 1.3375 0.63967 0.3681 0.15701 0.98276 0.39194 1.3666 0.52278 0.3838 0.13025 0.94672 0.30123 1.2503 0.38031 0.30355 0.0791 0.82691 0.19771 1.163 0.264 0.33612 0.0669 0.93799 0.16573 1.3375 0.22098 0.53674 0.0738 1.1299 0.10002 2.2679 0.10002 1.1601 0 1.7277-0.0262 2.297-0.10468 0.41579-0.057 1.07-0.16747 1.4538-0.24539 0.3838-0.0773 0.98567-0.22214 1.3375-0.321 0.35181-0.0989 0.99323-0.31053 1.4247-0.46987 0.43207-0.15933 1.1776-0.48034 1.6573-0.7141 0.47975-0.23377 1.1503-0.59257 1.4904-0.79784 0.3396-0.20586 0.88565-0.56466 1.213-0.799 0.32739-0.23377 0.83448-0.62339 1.127-0.86588 0.29192-0.24249 0.78912-0.69084 1.1049-0.99556 0.31577-0.30529 0.8089-0.82634 1.0962-1.1584 0.28727-0.33205 0.70887-0.85541 0.93741-1.163 0.22795-0.30762 0.62048-0.88682 0.87111-1.2864 0.25064-0.40008 0.66119-1.1456 0.91183-1.6573 0.25063-0.51174 0.58558-1.2834 0.74492-1.7155 0.15876-0.43207 0.36868-1.0729 0.46638-1.4247 0.0983-0.35182 0.24307-0.95369 0.32215-1.3375 0.0791-0.3838 0.19074-1.038 0.24774-1.4538 0.0773-0.56698 0.10292-1.1415 0.10292-2.297 0-1.1607-0.0256-1.7277-0.10409-2.297-0.057-0.41578-0.16747-1.07-0.24539-1.4538-0.0773-0.3838-0.22214-0.98568-0.321-1.3375-0.0989-0.35182-0.30995-0.99265-0.46871-1.4247-0.15933-0.43207-0.49429-1.2037-0.74492-1.7155-0.25064-0.51173-0.66119-1.2578-0.91183-1.6573-0.24996-0.39744-0.64322-0.97582-0.87123-1.2833-0.228-0.30854-0.65054-0.83254-0.93816-1.1662-0.28867-0.33364-0.81685-0.88692-1.1724-1.2289-0.35665-0.34097-0.92771-0.84509-1.2708-1.1191-0.34201-0.27507-0.88274-0.67774-1.2028-0.89529-0.32005-0.2165-0.86914-0.55955-1.2195-0.76141-0.35037-0.20186-0.93398-0.5083-1.2959-0.67983-0.36113-0.17213-0.96416-0.43148-1.3393-0.57629-0.37449-0.14479-1.0235-0.36345-1.4416-0.48556-0.41811-0.12271-1.0985-0.29018-1.512-0.37218-0.41346-0.0826-1.0526-0.19074-1.4206-0.24074-0.38031-0.0518-1.2462-0.0994-2.0062-0.11165zm-0.41927 8.3489c0.34484-0.004 0.88158 0.0204 1.1921 0.0541 0.31052 0.0343 0.824 0.11514 1.141 0.17969 0.31693 0.0651 0.87519 0.22156 1.2403 0.34775 0.36519 0.12561 0.91938 0.35704 1.2316 0.51348 0.31227 0.15642 0.84029 0.46812 1.173 0.69259 0.33321 0.22447 0.81471 0.59083 1.0706 0.81412 0.25587 0.2233 0.65653 0.62397 0.89089 0.88973 0.23376 0.26633 0.61931 0.77283 0.85541 1.1258 0.23668 0.35298 0.57221 0.94147 0.74609 1.3084 0.1733 0.36694 0.39893 0.92868 0.50069 1.2485 0.10235 0.31983 0.23436 0.81703 0.29367 1.1049 0.0593 0.28785 0.13607 0.77749 0.1698 1.088 0.0337 0.31053 0.0616 0.8025 0.0616 1.0926 0 0.29017-0.0279 0.78214-0.0616 1.0926-0.0337 0.31052-0.11165 0.8083-0.17329 1.106-0.0616 0.29832-0.20528 0.82169-0.31925 1.163-0.11398 0.34194-0.33844 0.89613-0.49895 1.2323-0.15991 0.33553-0.48382 0.89844-0.71933 1.2503-0.2361 0.35182-0.62572 0.86181-0.86588 1.1328-0.24017 0.27099-0.64083 0.67224-0.89088 0.89031-0.24947 0.21865-0.7426 0.5914-1.0956 0.82807-0.35298 0.23668-0.94148 0.57221-1.3084 0.74609-0.36694 0.1733-0.92868 0.39893-1.2485 0.50069-0.31984 0.10235-0.81704 0.23436-1.1049 0.29367-0.28785 0.0593-0.77748 0.13607-1.088 0.1698-0.31053 0.0337-0.8025 0.0616-1.0926 0.0616-0.29017 0-0.78214-0.0279-1.0926-0.0616-0.31053-0.0337-0.80018-0.11049-1.088-0.1698-0.28785-0.0593-0.78505-0.19074-1.1049-0.29251-0.31984-0.10118-0.8967-0.33612-1.2823-0.5222-0.38555-0.18609-0.97463-0.52221-1.3084-0.74725-0.33437-0.22447-0.82983-0.60478-1.1008-0.84495-0.26984-0.2416-0.67146-0.64218-0.89005-0.89215-0.21859-0.24892-0.59093-0.74258-0.82731-1.095-0.23741-0.35351-0.5721-0.94235-0.74676-1.3084-0.17258-0.36711-0.39849-0.92876-0.49994-1.2488-0.1025-0.32004-0.23428-0.81684-0.2939-1.1055-0.0596-0.28762-0.13596-0.7771-0.16943-1.0877-0.0345-0.31063-0.0617-0.8022-0.0617-1.093 0-0.29018 0.0279-0.78214 0.0616-1.0926 0.0337-0.31052 0.11224-0.80947 0.17387-1.109 0.0616-0.2989 0.21458-0.85134 0.34019-1.2264 0.12561-0.37566 0.35996-0.94438 0.51987-1.2642 0.16051-0.31925 0.4751-0.85367 0.69957-1.1862 0.22447-0.33321 0.58675-0.81006 0.80482-1.0595 0.21865-0.25006 0.61931-0.65072 0.8903-0.89089 0.271-0.24017 0.78156-0.63036 1.1346-0.86704 0.35298-0.2361 0.94147-0.57221 1.3084-0.74609 0.36694-0.17387 0.96822-0.40939 1.3357-0.52337 0.3681-0.11398 0.87809-0.24773 1.134-0.29773 0.25586-0.0494 0.66177-0.11224 0.90135-0.13957 0.24017-0.0273 0.71876-0.0529 1.0636-0.057zm86.857-8.3578c-22.948-0.002-41.841 0.004-41.985 0.0151-0.14364 0.0105-0.60187 0.0605-1.0177 0.11107-0.41578 0.0506-1.07 0.15527-1.4538 0.23319-0.3838 0.0779-0.98568 0.22214-1.3375 0.321-0.35182 0.0983-0.99265 0.30937-1.4247 0.46928-0.43148 0.15992-1.1776 0.4815-1.6573 0.71527-0.47975 0.23319-1.1601 0.59955-1.5119 0.81354-0.35182 0.21457-0.89786 0.57395-1.2137 0.799-0.31518 0.22504-0.81238 0.60768-1.1049 0.85018-0.29192 0.24249-0.78912 0.69084-1.1049 0.99555-0.31577 0.3053-0.8089 0.82634-1.0962 1.1584-0.28726 0.33205-0.70479 0.85018-0.9281 1.1508-0.2233 0.30064-0.59199 0.84029-0.82053 1.1991-0.22795 0.35822-0.61408 1.0444-0.85774 1.5242-0.24423 0.47975-0.58035 1.2223-0.74666 1.6503-0.16689 0.428-0.40532 1.1281-0.53034 1.5549-0.12503 0.42742-0.29192 1.0979-0.37043 1.4899-0.0791 0.39194-0.19015 1.0531-0.24714 1.469-0.0779 0.56756-0.10351 1.1398-0.10351 2.297 0 1.1607 0.0256 1.7277 0.10408 2.297 0.057 0.41578 0.16748 1.07 0.2454 1.4538 0.0774 0.3838 0.22156 0.98567 0.32042 1.3375 0.0983 0.35182 0.30937 0.99265 0.46929 1.4247 0.15991 0.43207 0.48149 1.1776 0.71526 1.6573 0.23319 0.47975 0.59955 1.1601 0.81354 1.512 0.21458 0.35182 0.57396 0.89786 0.799 1.2136 0.22505 0.31518 0.60769 0.81238 0.85018 1.1049 0.24249 0.29192 0.69084 0.78911 0.99555 1.1049 0.3053 0.31577 0.82634 0.80889 1.1584 1.0962 0.33205 0.28727 0.85017 0.7048 1.1508 0.92811 0.30065 0.2233 0.82751 0.58326 1.17 0.80075 0.34251 0.2169 0.92402 0.55418 1.2916 0.74841 0.3681 0.1948 0.96998 0.48207 1.3375 0.63967 0.3681 0.15701 0.98277 0.39193 1.3666 0.52278 0.3838 0.13025 0.94671 0.30122 1.2503 0.3803 0.30414 0.0791 0.8275 0.19772 1.163 0.26401 0.33611 0.0669 0.93799 0.16689 1.3375 0.2233l0.72689 0.10292h83.971l0.44603-0.15235c0.24482-0.0837 0.62455-0.25122 0.8432-0.37276 0.24075-0.13375 0.5821-0.4059 0.86762-0.69084 0.28494-0.28553 0.55709-0.62688 0.69084-0.86763 0.12155-0.21865 0.28902-0.59837 0.37276-0.8432l0.13597-0.44346v-30.878l-0.15236-0.44603c-0.0838-0.24482-0.25121-0.62454-0.37276-0.8432-0.13374-0.24074-0.4059-0.5821-0.69084-0.86762-0.28552-0.28494-0.62687-0.55709-0.86762-0.69084-0.21865-0.12154-0.59838-0.28902-0.8432-0.37276l-0.43928-0.1527zm-2.3406 8.357 39.092-0.008v20.935h-38.993c-27.057 0-39.166-0.0186-39.558-0.0616-0.31054-0.0337-0.80017-0.11049-1.088-0.1698-0.28786-0.0593-0.78505-0.19074-1.1049-0.29251-0.31983-0.10118-0.8967-0.33612-1.2823-0.5222-0.38555-0.18609-0.97463-0.52221-1.3084-0.74725-0.33437-0.22447-0.82982-0.60478-1.1008-0.84495-0.2688-0.23951-0.67042-0.64009-0.88797-0.89005-0.21859-0.24893-0.59197-0.74259-0.82835-1.0951-0.23637-0.35351-0.5721-0.94235-0.74572-1.3084-0.17362-0.36711-0.39953-0.92876-0.50098-1.2488-0.1025-0.32004-0.23428-0.81684-0.2939-1.1055-0.0596-0.28762-0.13597-0.7771-0.16943-1.0877-0.0345-0.31063-0.0617-0.8022-0.0617-1.093 0-0.29017 0.0279-0.78214 0.0616-1.0926 0.0337-0.31052 0.11224-0.80947 0.17387-1.109 0.0617-0.29889 0.21458-0.85134 0.34019-1.2264 0.12561-0.37567 0.35996-0.94438 0.51987-1.2642 0.16051-0.31925 0.4751-0.85367 0.69957-1.1862 0.22447-0.33321 0.58675-0.81006 0.80482-1.0595 0.21865-0.25006 0.61931-0.65072 0.8903-0.89089 0.271-0.24016 0.78156-0.63036 1.1346-0.86704 0.35298-0.2361 0.94147-0.57221 1.3084-0.74609 0.36694-0.17387 0.96823-0.40939 1.3357-0.52337 0.3681-0.11398 0.87809-0.24773 1.134-0.29773 0.25586-0.0494 0.66176-0.11224 0.90135-0.13957 0.24017-0.0273 18.028-0.0529 39.529-0.057z"/>
 </g>

</svg>