<?xml version="1.0" encoding="utf-8"?>
<svg version="1.1" xmlns:cc="http://creativecommons.org/ns#" xmlns:dc="http://purl.org/dc/elements/1.1/" xmlns:rdf="http://www.w3.org/1999/02/22-rdf-syntax-ns#" xmlns="http://www.w3.org/2000/svg" xmlns:xlink="http://www.w3.org/1999/xlink" 
    width="1200px" height="1200px" viewBox="0 0 1200 1200" xml:space="preserve">
    
    <rect fill="#f4f6f6" width="1200" height="1200" />

    <g id="logo-group" transform="translate(.15151 -.79914) scale(1)">
        <path id="path671701" style="font-variant-ligatures:none" 
            d="m316.29 468.22q-6.864 0-10.8-3.312-3.888-3.312-4.128-9.696-0.048-1.296-0.048-4.224 0-2.976 0.048-4.32 0.24-6.24 4.176-9.6 3.984-3.408 10.752-3.408 4.272 0 7.632 1.392 3.408 1.392 5.376 4.032t2.064 6.24q0 0.432-0.336 0.72-0.288 0.288-0.72 0.288h-6.816q-0.672 0-1.008-0.24-0.288-0.288-0.528-1.008-0.672-2.352-2.064-3.264-1.344-0.96-3.6-0.96-5.424 0-5.616 6.048-0.048 1.296-0.048 3.984t0.048 4.08q0.192 6.048 5.616 6.048 2.208 0 3.6-0.96 1.44-0.96 2.064-3.264 0.192-0.72 0.528-0.96 0.336-0.288 1.008-0.288h6.816q0.432 0 0.72 0.288 0.336 0.288 0.336 0.72-0.096 3.6-2.064 6.24t-5.376 4.032q-3.36 1.392-7.632 1.392z" 
            stroke-miterlimit="2" stroke-width="0" fill="#354bb5"/>
        <path id="path671703" style="font-variant-ligatures:none" 
            d="m350.13 468.22q-6.816 0-10.752-3.312t-4.176-9.744q-0.048-1.344-0.048-4.128t0.048-4.176q0.192-6.336 4.176-9.744 4.032-3.456 10.752-3.456 6.672 0 10.656 3.456 4.032 3.408 4.224 9.744 0.096 2.784 0.096 4.176 0 1.44-0.096 4.128-0.24 6.432-4.176 9.744-3.888 3.312-10.704 3.312zm0-7.2q2.496 0 3.984-1.488 1.488-1.536 1.584-4.656 0.096-2.784 0.096-3.984t-0.096-3.888q-0.096-3.12-1.584-4.608-1.488-1.536-3.984-1.536-2.544 0-4.032 1.536-1.488 1.488-1.584 4.608-0.048 1.344-0.048 3.888 0 2.592 0.048 3.984 0.096 3.12 1.584 4.656 1.488 1.488 4.032 1.488z" 
            stroke-miterlimit="2" stroke-width="0" fill="#354bb5"/>
    </g>
</svg>
